{"title":"Domino-720p MP4 AAC x264 BRRip 2005-CC","uid":8016667,"size":3313698597,"categoryP":"video","categoryS":"hd___movies","magnet":"?xt=urn:btih:9d4efa992a07c855353393e08f6fcc3b6976e2ce&amp;dn=Domino-720p+MP4+AAC+x264+BRRip+2005-CC&amp;tr=udp%3A%2F%2Ftracker.openbittorrent.com%3A80&amp;tr=udp%3A%2F%2Fopen.demonii.com%3A1337&amp;tr=udp%3A%2F%2Ftracker.coppersurfer.tk%3A6969&amp;tr=udp%3A%2F%2Fexodus.desync.com%3A6969","seeders":2,"leechers":1,"uploader":"Caveman44","files":-1,"time":1358116211,"description":" &lt;a href=&quot;http://www.imdb.com/title/tt0421054/&quot; rel=&quot;nofollow&quot; target=&quot;_NEW&quot;&gt;http://www.imdb.com/title/tt0421054/&lt;/a&gt;\n\nSource: Domino.2005.MULTi.1080p.BluRay.x264-UKDHD Thanks!\n\nSubs: Arabic, Brazilian, Bulgarian, Croatian, Danish, Dutch, English, Finnish, French, German, Greek, Hebrew, Hungarian, Indonesian, Norwegian, Polish, Portuguese, Romanian, Servian, Slovenian, Spanish, Swedish and Vietnamese.\n\nSample and Screens included.\n\nGeneral\nComplete name                            : Domino-720p MP4 AAC x264 BRRip 2005-CC.mp4\nFormat                                   : MPEG-4\nFormat profile                           : Base Media\nCodec ID                                 : isom\nFile size                                : 3.05 GiB\nDuration                                 : 2h 7mn\nOverall bit rate mode                    : Variable\nOverall bit rate                         : 3 421 Kbps\nEncoded date                             : UTC 2012-12-30 08:55:46\n\nVideo\nID                                       : 1\nFormat                                   : AVC\nFormat/Info                              : Advanced Video Codec\nFormat profile                           : &lt;a class=&quot;__cf_email__&quot; href=&quot;/cdn-cgi/l/email-protection&quot; data-cfemail=&quot;df97b6b8b79f93ebf1ee&quot;&gt;[email&amp;#160;protected]&lt;/a&gt;&lt;script cf-hash='f9e31' type=&quot;text/javascript&quot;&gt;\n/* &lt;![CDATA[ */!function(){try{var t=&quot;currentScript&quot;in document?document.currentScript:function(){for(var t=document.getElementsByTagName(&quot;script&quot;),e=t.length;e--;)if(t[e].getAttribute(&quot;cf-hash&quot;))return t[e]}();if(t&amp;&amp;t.previousSibling){var e,r,n,i,c=t.previousSibling,a=c.getAttribute(&quot;data-cfemail&quot;);if(a){for(e=&quot;&quot;,r=parseInt(a.substr(0,2),16),n=2;a.length-n;n+=2)i=parseInt(a.substr(n,2),16)^r,e+=String.fromCharCode(i);e=document.createTextNode(e),c.parentNode.replaceChild(e,c)}}}catch(u){}}();/* ]]&gt; */&lt;/script&gt;\nFormat settings, CABAC                   : Yes\nFormat settings, ReFrames                : 5 frames\nCodec ID                                 : avc1\nCodec ID/Info                            : Advanced Video Coding\nDuration                                 : 2h 7mn\nBit rate                                 : 3 075 Kbps\nMaximum bit rate                         : 19.2 Mbps\nWidth                                    : 1 280 pixels\nHeight                                   : 544 pixels\nDisplay aspect ratio                     : 2.35:1\nFrame rate mode                          : Variable\nFrame rate                               : 23.976 fps\nMinimum frame rate                       : 15.873 fps\nMaximum frame rate                       : 24.390 fps\nColor space                              : YUV\nChroma subsampling                       : 4:2:0\nBit depth                                : 8 bits\nScan type                                : Progressive\nBits/(Pixel*Frame)                       : 0.184\nStream size                              : 2.70 GiB (89%)\nWriting library                          : x264 core 112\n\nAudio\nID                                       : 2\nFormat                                   : AAC\nFormat/Info                              : Advanced Audio Codec\nFormat profile                           : LC\nCodec ID                                 : 40\nDuration                                 : 2h 7mn\nBit rate mode                            : Variable\nBit rate                                 : 384 Kbps\nMaximum bit rate                         : 721 Kbps\nChannel(s)                               : 6 channels\nChannel positions                        : Front: L C R, Side: L R, LFE\nSampling rate                            : 48.0 KHz\nCompression mode                         : Lossy\nDelay relative to video                  : 83ms\nStream size                              : 350 MiB (11%)\nLanguage                                 : English\n\nEnjoy...\n\nRequested by romeo49000\n\nComing soon: Apocalypse Hitler, S.Darko, Twilight Samurai, The Big Heat, Broken Arrow and more..","torrent":{"xt":"urn:btih:9d4efa992a07c855353393e08f6fcc3b6976e2ce","amp;dn":"Domino-720p+MP4+AAC+x264+BRRip+2005-CC","amp;tr":["udp%3A%2F%2Ftracker.openbittorrent.com%3A80","udp%3A%2F%2Fopen.demonii.com%3A1337","udp%3A%2F%2Ftracker.coppersurfer.tk%3A6969","udp%3A%2F%2Fexodus.desync.com%3A6969"],"infoHash":"9d4efa992a07c855353393e08f6fcc3b6976e2ce","infoHashBuffer":{"type":"Buffer","data":[157,78,250,153,42,7,200,85,53,51,147,224,143,111,204,59,105,118,226,206]},"announce":[],"urlList":[]}}